<svg height="512" viewBox="0 0 56 42" width="512" xmlns="http://www.w3.org/2000/svg"><g id="015---Cream-Pot"><path id="Shape" d="m1 20.342c5.767 1.992 23.2 1.778 29.981 1.384-.18-1.039-.313-2.057-.419-3.059-2.9.214-6.173.333-9.562.333-4.948 0-15.7-.365-20-2z"/><path id="Shape" d="m1.388 15c1.61459223.5798672 3.29349111.9619846 5 1.138-.29310334-.7084958-.53962786-1.4353757-.738-2.176-1.45768744.1708624-2.88899037.5194528-4.262 1.038z"/><path id="Shape" d="m12.937 28c-4.37327776-.143247-8.71493286-.7959887-12.937-1.945v11.945c0 1.661 6.515 4 21 4 7.729 0 14.056-.671 17.763-1.859-3.807-4.368-6.188-10.812-7.394-16.434-6.674.4-25.48.7-31.369-1.614v1.851c1.959.729 5.751 1.6 13.062 2.058.3572656.0223291.6754802.2335609.8347754.5541266.1592953.3205656.1354704.7017635-.0625 1-.1979703.2982365-.5400098.4682025-.8972754.4458734zm4.063-2c.5522847 0 1 .4477153 1 1s-.4477153 1-1 1-1-.4477153-1-1 .4477153-1 1-1z"/><path id="Shape" d="m37.214 1.921c-3.258.734-5.5 6.832-4.778 15.525 0 .025.018.045.021.07.707 8.391 3.664 15.815 6.85 20.117 2.358 3.182 4.878 4.744 6.915 4.286l.607-.137c-9.685-5.853-15.248-30.555-9.009-40z"/><path id="Shape" d="m54.888 18.954c-2.54-11.278-8.106-18.209-12.088-18.209-.2374426-.00025633-.4741951.02556513-.706.077-4 .9-6.483 9.9-3.789 21.867s8.79 19.032 12.8 18.132c2.036-.459 3.642-2.951 4.408-6.837.8027592-5.0011565.590201-10.1127574-.625-15.03zm-8.827-13.419c-.2035661.50895321-.7789197.75916511-1.29.561-.5186947-.18034614-1.0923141-.10232797-1.544.21-.616.475-1.577 1.985-1.1 6.757.0552284.5495233-.3454767 1.0397715-.895 1.0949999-.5495233.0552285-1.0397715-.3454766-1.095-.8949999-.44-4.4.2-7.286 1.9-8.567 1.0045469-.72326361 2.3042261-.89627896 3.463-.461.2469889.09774155.4449423.28973353.5501883.53361912s.109136.51962343.0108117.76638088zm5.9 29.932c-1.0046107.7239475-2.3047713.8973523-3.464.462-.513901-.2024124-.7664124-.783099-.564-1.297s.783099-.7664124 1.297-.564c.5184895.1803798 1.0919728.101958 1.543-.211.616-.476 1.578-1.985 1.1-6.757-.0552284-.5495233.3454767-1.0397715.895-1.095.5495233-.0552284 1.0397715.3454767 1.095.895.437 4.4-.2 7.286-1.902 8.567z"/><path id="Shape" d="m14.684 13.949c-4.219-1.407-6.445-4.649-6.564-9.249-1.50831473 3.80740325-1.29423306 8.0813778.587 11.719 7.21024.6776673 14.4639607.7619506 21.688.252-.2766402-3.4229548.0345172-6.8680082.92-10.186-6.1-1.515-6.848 3.588-14.457 2.5-2.9855727-.38641791-5.5457507-2.31938088-6.735-5.085-.127 3.961 1.418 6.89 5.193 8.148.5249466.174522.809022.7415533.6345 1.2665-.174522.5249466-.7415533.809022-1.2665.6345z"/></g></svg>