<svg height="448pt" viewBox="-136 0 448 448.09668" width="448pt" xmlns="http://www.w3.org/2000/svg"><path d="m136.046875 192.097656v-80h-96v80zm0 0"/><path d="m24.046875 448.097656h128c13.257813 0 24-10.746094 24-24v-144c.015625-28.675781-13.960937-55.550781-37.445313-72h-26.554687v184c0 13.253906-10.742187 24-24 24-13.253906 0-24-10.746094-24-24v-184h-26.550781c-23.484375 16.449219-37.464844 43.324219-37.449219 72v144c0 13.253906 10.746094 24 24 24zm0 0"/><path d="m88.046875 400.097656c4.417969 0 8-3.582031 8-8v-184h-16v184c0 4.417969 3.582031 8 8 8zm0 0"/><path d="m67.152344 96.097656h41.792968l-4.480468-13.472656c-.273438-.816406-.414063-1.667969-.417969-2.527344 0-1.023437.097656-2.9375.226563-5.511718 2.03125-38.648438-1.175782-62.695313-9.535157-71.503907-1.671875-1.957031-4.117187-3.082031-6.691406-3.082031-2.570313 0-5.015625 1.125-6.6875 3.082031-8.359375 8.796875-11.566406 32.855469-9.535156 71.503907.128906 2.574218.222656 4.488281.222656 5.511718 0 .859375-.140625 1.710938-.414063 2.527344zm0 0"/></svg>