<?xml version="1.0"?>
<svg xmlns="http://www.w3.org/2000/svg" viewBox="0 0 64 64" width="512" height="512"><g id="Glyph"><path d="M44,53V48.009a36.374,36.374,0,0,0-11.706,1.947A38.555,38.555,0,0,1,20,51.99V53a7.008,7.008,0,0,0,7,7H37A7.008,7.008,0,0,0,44,53Zm-7,3a3,3,0,0,0,3-3V51h2v2a5.006,5.006,0,0,1-5,5Zm-2,2H33V56h2Z"/><circle cx="35" cy="41" r="2"/><path d="M21.227,20.215a10.859,10.859,0,0,1,2.516.879,7.978,7.978,0,0,0,3.92.906,7.94,7.94,0,0,0,3.915-.908A9.956,9.956,0,0,1,36.332,20a9.946,9.946,0,0,1,4.752,1.092,8.071,8.071,0,0,0,2.71.842c-.879-2.412-4.375-4.926-6.065-5.934H26.271A20.521,20.521,0,0,0,21.227,20.215Z"/><path d="M27,8v6H37V8H35v3a1,1,0,0,1-1,1H30a1,1,0,0,1-1-1V8Z"/><rect x="31" y="8" width="2" height="2"/><path d="M27,5V6H37V5a1,1,0,0,0-1-1H28A1,1,0,0,0,27,5Z"/><path d="M44,29.992a38.5,38.5,0,0,1-12.294-2.036A36.331,36.331,0,0,0,20,26.008V49.992a36.331,36.331,0,0,0,11.706-1.948A38.5,38.5,0,0,1,44,46.008ZM27,39a5,5,0,1,1,5-5A5.006,5.006,0,0,1,27,39Zm8,6a4,4,0,1,1,4-4A4,4,0,0,1,35,45Z"/><path d="M44,23.959a9.888,9.888,0,0,1-3.753-1.051A7.94,7.94,0,0,0,36.332,22a7.941,7.941,0,0,0-3.916.908A9.951,9.951,0,0,1,27.663,24a9.987,9.987,0,0,1-4.755-1.089,8.084,8.084,0,0,0-2.744-.843A3.03,3.03,0,0,0,20,23v1.01a38.555,38.555,0,0,1,12.294,2.034A36.374,36.374,0,0,0,44,27.991Z"/><circle cx="27" cy="34" r="3"/></g></svg>
